<mxfile host="app.diagrams.net" modified="2024-04-07T12:55:08.635Z" agent="Mozilla/5.0 (Windows NT 10.0; Win64; x64) AppleWebKit/537.36 (KHTML, like Gecko) Chrome/123.0.0.0 Safari/537.36 Edg/123.0.0.0" etag="sRTKw1_Raf1rJu9A1Ml2" version="23.0.2" type="github">
  <diagram name="Page-1" id="QazOaiLqFIUU-B95EGwl">
    <mxGraphModel dx="894" dy="490" grid="1" gridSize="10" guides="1" tooltips="1" connect="1" arrows="1" fold="1" page="1" pageScale="1" pageWidth="827" pageHeight="1169" math="0" shadow="0">
      <root>
        <mxCell id="0" />
        <mxCell id="1" parent="0" />
        <mxCell id="W2mccz6P5e9vQjV3Yz7X-1" value="Green Credit Management System" style="whiteSpace=wrap;html=1;aspect=fixed;" vertex="1" parent="1">
          <mxGeometry x="290" y="170" width="80" height="80" as="geometry" />
        </mxCell>
      </root>
    </mxGraphModel>
  </diagram>
</mxfile>
